<svg width="48" height="48" viewBox="0 0 48 48" fill="none" xmlns="http://www.w3.org/2000/svg">
<g clip-path="url(#clip0_464_75613)">
<rect width="48" height="48" fill="#E6ECFF"/>
<path d="M15.2238 20.994L16.8238 27.394C16.9006 27.7012 17.1514 27.9342 17.4634 27.9882C17.7754 28.0423 18.0899 27.9072 18.2656 27.6437L19.1999 26.2422L20.1343 27.6437C20.31 27.9072 20.6245 28.0423 20.9365 27.9882C21.2485 27.9342 21.4993 27.7012 21.5761 27.394L23.1761 20.994L21.6238 20.606L20.4624 25.2515L19.8656 24.3562C19.7172 24.1337 19.4674 24 19.1999 24C18.9325 24 18.6827 24.1337 18.5343 24.3562L17.9374 25.2515L16.7761 20.606L15.2238 20.994Z" fill="#1A50FF"/>
<path fill-rule="evenodd" clip-rule="evenodd" d="M17.6 12C16.2745 12 15.2 13.0745 15.2 14.4V16.8H14.4C13.0745 16.8 12 17.8745 12 19.2V28.8C12 30.1255 13.0745 31.2 14.4 31.2H15.2V33.6C15.2 34.9255 16.2745 36 17.6 36H33.6C34.9255 36 36 34.9255 36 33.6V14.4C36 13.0745 34.9255 12 33.6 12H17.6ZM14.4 18.4C13.9582 18.4 13.6 18.7582 13.6 19.2V28.8C13.6 29.2418 13.9582 29.6 14.4 29.6H24C24.4418 29.6 24.8 29.2418 24.8 28.8V19.2C24.8 18.7582 24.4418 18.4 24 18.4H14.4Z" fill="#1A50FF"/>
</g>
<defs>
<clipPath id="clip0_464_75613">
<rect width="48" height="48" rx="18" fill="white"/>
</clipPath>
</defs>
</svg>
